<svg width="519" height="123" viewBox="0 0 519 123" fill="none" xmlns="http://www.w3.org/2000/svg">
<path d="M38 23H22.1443C20.299 23 18.6932 24.2623 18.2575 26.0554L4.63847 82.0953C1.77906 93.8613 5.57443 106.249 14.534 114.395C20.625 119.932 28.5612 123 36.793 123H67.7208C69.6275 123 71.2692 121.654 71.6431 119.784L90.0431 27.7845C90.5381 25.3093 88.645 23 86.1208 23H54C51.7909 23 50 24.7909 50 27V85C50 87.2091 48.2091 89 46 89C43.7909 89 42 87.2091 42 85V27C42 24.7909 40.2091 23 38 23Z" fill="currentColor"/>
<path d="M38 23H22.1443C20.299 23 18.6932 24.2623 18.2575 26.0554L4.63847 82.0953C1.77906 93.8613 5.57443 106.249 14.534 114.395C20.625 119.932 28.5612 123 36.793 123H67.7208C69.6275 123 71.2692 121.654 71.6431 119.784L90.0431 27.7845C90.5381 25.3093 88.645 23 86.1208 23H54C51.7909 23 50 24.7909 50 27V85C50 87.2091 48.2091 89 46 89C43.7909 89 42 87.2091 42 85V27C42 24.7909 40.2091 23 38 23Z" fill="currentColor"/>
<path d="M102.357 26.2155L83.9569 118.216C83.4619 120.691 85.355 123 87.8792 123H116.059C118.245 123 120.026 121.245 120.059 119.06L120.941 60.122C120.974 57.9364 122.784 56.1818 124.97 56.1818C127.179 56.1818 129 57.9727 129 60.1818V119C129 121.209 130.791 123 133 123H159.607C161.564 123 163.234 121.584 163.553 119.652L172.971 62.6837C174.86 51.2614 170.827 39.6607 162.26 31.8729C155.98 26.1636 147.797 23 139.309 23H106.279C104.372 23 102.731 24.3458 102.357 26.2155Z" fill="currentColor"/>
<path d="M102.357 26.2155L83.9569 118.216C83.4619 120.691 85.355 123 87.8792 123H116.059C118.245 123 120.026 121.245 120.059 119.06L120.941 60.122C120.974 57.9364 122.784 56.1818 124.97 56.1818C127.179 56.1818 129 57.9727 129 60.1818V119C129 121.209 130.791 123 133 123H159.607C161.564 123 163.234 121.584 163.553 119.652L172.971 62.6837C174.86 51.2614 170.827 39.6607 162.26 31.8729C155.98 26.1636 147.797 23 139.309 23H106.279C104.372 23 102.731 24.3458 102.357 26.2155Z" fill="currentColor"/>
<path d="M209.358 24.0293L187.321 43.8994C186.48 44.6579 186 45.7375 186 46.8702V99.5842C186 100.717 186.48 101.797 187.322 102.555L208.859 121.971C209.593 122.633 210.548 123 211.537 123H243C245.209 123 247 121.209 247 119V95C247 92.7909 245.209 91 243 91H227.403C226.495 91 225.614 90.6909 224.904 90.1235L222.501 88.201C221.552 87.4419 221 86.2926 221 85.0775V60.9225C221 59.7074 221.552 58.5581 222.501 57.799L224.904 55.8765C225.614 55.3091 226.495 55 227.403 55H243C245.209 55 247 53.2091 247 51V27C247 24.7909 245.209 23 243 23H212.037C211.048 23 210.093 23.3667 209.358 24.0293Z" fill="currentColor"/>
<path d="M313.215 23C313.719 23.0001 314.205 23.1909 314.575 23.5342L336.361 43.7705C336.769 44.1488 337 44.6795 337 45.2354V101.206C337 101.77 336.763 102.307 336.346 102.687L314.572 122.479C314.204 122.814 313.724 123 313.227 123H280.785C280.281 123 279.795 122.809 279.425 122.466L257.639 102.229C257.231 101.851 257 101.32 257 100.765V44.7939C257 44.2305 257.237 43.6925 257.654 43.3135L279.428 23.5205C279.796 23.1858 280.276 23 280.773 23H313.215ZM297 52.0908C294.239 52.0908 292 54.3294 292 57.0908V88.9092C292 91.6705 294.239 93.9092 297 93.9092C299.761 93.9092 302 91.6705 302 88.9092V57.0908C302 54.3294 299.761 52.0908 297 52.0908Z" fill="currentColor"/>
<path d="M428 119C428 121.209 426.209 123 424 123H399.746C398.633 123 397.57 122.536 396.813 121.719L394.716 119.457C393.216 117.838 390.687 117.74 389.067 119.239L386.15 121.937C385.411 122.62 384.441 123 383.434 123H371.591C370.569 123 369.586 122.609 368.844 121.907L348.253 102.45C347.453 101.695 347 100.643 347 99.543V44.7341C347 43.6301 347.456 42.5751 348.261 41.8191L366.845 24.3555C367.587 23.6585 368.567 23.2705 369.584 23.2705H388C390.209 23.2705 392 21.4796 392 19.2705V4C392 1.79086 393.791 0 396 0H424C426.209 0 428 1.79086 428 4V119ZM387 50.8623C384.239 50.8623 382 53.1011 382 55.8623V88.4043C382 91.1656 384.239 93.4043 387 93.4043C389.761 93.4043 392 91.1656 392 88.4043V55.8623C392 53.1011 389.761 50.8623 387 50.8623Z" fill="currentColor"/>
<path d="M494.453 23C495.448 23 496.408 23.3707 497.145 24.04L517.69 42.7188C518.524 43.4768 519 44.5517 519 45.6787V79.9092C519 82.1183 517.209 83.9092 515 83.9092H475C473.895 83.9092 473 84.8046 473 85.9092V87.9922C473 88.8186 473.508 89.5596 474.279 89.8574L480.305 92.1855C480.764 92.3631 481.253 92.4541 481.746 92.4541H500.5C502.709 92.4541 504.5 94.2452 504.5 96.4541V110.355C504.5 111.959 503.542 113.408 502.066 114.036L481.751 122.681C481.256 122.891 480.723 123 480.185 123H461.383C460.487 123 459.617 122.7 458.912 122.146L439.53 106.929C438.564 106.17 438 105.01 438 103.782V45.626C438 44.5299 438.45 43.4817 439.244 42.7266L458.842 24.1006C459.585 23.394 460.572 23 461.598 23H494.453ZM476 48.7021C473.791 48.7021 472 50.493 472 52.7021V60.7021C472 62.9113 473.791 64.7021 476 64.7021H481C483.209 64.7021 485 62.9113 485 60.7021V52.7021C485 50.493 483.209 48.7021 481 48.7021H476Z" fill="currentColor"/>
</svg>
