<svg width="207" height="241" viewBox="0 0 207 241" fill="none" xmlns="http://www.w3.org/2000/svg">
<path d="M149.862 69.7764C189.621 69.7764 213.476 113.935 191.68 147.187L144.99 218.415C125.247 248.534 81.099 248.534 61.3561 218.415L14.6663 147.187C-7.12998 113.936 16.7239 69.7765 56.4827 69.7764H149.862ZM56.4827 105.776C45.3504 105.777 38.6712 118.141 44.7741 127.451L91.4639 198.68C96.992 207.113 109.353 207.113 114.881 198.679L161.571 127.451C167.674 118.141 160.995 105.776 149.862 105.776H56.4827Z" fill="url(#paint0_radial_912_4)"/>
<path d="M149.862 69.7764C189.621 69.7764 213.476 113.935 191.68 147.187L144.99 218.415C125.247 248.534 81.099 248.534 61.3561 218.415L14.6663 147.187C-7.12998 113.936 16.7239 69.7765 56.4827 69.7764H149.862ZM56.4827 105.776C45.3504 105.777 38.6712 118.141 44.7741 127.451L91.4639 198.68C96.992 207.113 109.353 207.113 114.881 198.679L161.571 127.451C167.674 118.141 160.995 105.776 149.862 105.776H56.4827Z" fill="url(#paint1_radial_912_4)" fill-opacity="0.2"/>
<rect y="0.976562" width="206.4" height="44" rx="22" fill="url(#paint2_linear_912_4)"/>
<rect y="0.976562" width="206.4" height="44" rx="22" fill="url(#paint3_radial_912_4)" fill-opacity="0.2"/>
<defs>
<radialGradient id="paint0_radial_912_4" cx="0" cy="0" r="1" gradientUnits="userSpaceOnUse" gradientTransform="translate(-4.79985 134.176) rotate(20.3569) scale(282.867 226.043)">
<stop stop-color="#E24A63"/>
<stop offset="1" stop-color="#7D40FF"/>
</radialGradient>
<radialGradient id="paint1_radial_912_4" cx="0" cy="0" r="1" gradientUnits="userSpaceOnUse" gradientTransform="translate(84.0548 193.871) rotate(-64.4003) scale(114.473 157.137)">
<stop stop-color="white" stop-opacity="0"/>
<stop offset="1" stop-color="white"/>
</radialGradient>
<linearGradient id="paint2_linear_912_4" x1="28" y1="12.1766" x2="214.115" y2="172.135" gradientUnits="userSpaceOnUse">
<stop stop-color="#E24A63"/>
<stop offset="1" stop-color="#7D40FF"/>
</linearGradient>
<radialGradient id="paint3_radial_912_4" cx="0" cy="0" r="1" gradientUnits="userSpaceOnUse" gradientTransform="translate(82.8121 32.8646) rotate(-26.6995) scale(59.0416 83.4882)">
<stop stop-color="white" stop-opacity="0"/>
<stop offset="1" stop-color="white"/>
</radialGradient>
</defs>
</svg>
