<svg width="1178" height="897" viewBox="0 0 1178 897" fill="none" xmlns="http://www.w3.org/2000/svg">
<g opacity="0.25">
<line x1="57.5" y1="2.62325e-08" x2="57.5" y2="897" stroke="url(#paint0_linear_927_54)"/>
<line x1="113.5" y1="2.62325e-08" x2="113.5" y2="897" stroke="url(#paint1_linear_927_54)"/>
<line x1="169.5" y1="2.62325e-08" x2="169.5" y2="897" stroke="url(#paint2_linear_927_54)"/>
<line x1="225.5" y1="2.62325e-08" x2="225.5" y2="897" stroke="url(#paint3_linear_927_54)"/>
<line x1="281.5" y1="2.62325e-08" x2="281.5" y2="897" stroke="url(#paint4_linear_927_54)"/>
<line x1="337.5" y1="2.62325e-08" x2="337.5" y2="897" stroke="url(#paint5_linear_927_54)"/>
<line x1="393.5" y1="2.62325e-08" x2="393.5" y2="897" stroke="url(#paint6_linear_927_54)"/>
<line x1="449.5" y1="2.62325e-08" x2="449.5" y2="897" stroke="url(#paint7_linear_927_54)"/>
<line x1="505.5" y1="2.62325e-08" x2="505.5" y2="897" stroke="url(#paint8_linear_927_54)"/>
<line x1="561.5" y1="2.62325e-08" x2="561.5" y2="897" stroke="url(#paint9_linear_927_54)"/>
<line x1="617.5" y1="2.62325e-08" x2="617.5" y2="897" stroke="url(#paint10_linear_927_54)"/>
<line x1="673.5" y1="2.62325e-08" x2="673.5" y2="897" stroke="url(#paint11_linear_927_54)"/>
<line x1="729.5" y1="2.62325e-08" x2="729.5" y2="897" stroke="url(#paint12_linear_927_54)"/>
<line x1="785.5" y1="2.62325e-08" x2="785.5" y2="897" stroke="url(#paint13_linear_927_54)"/>
<line x1="841.5" y1="2.62325e-08" x2="841.5" y2="897" stroke="url(#paint14_linear_927_54)"/>
<line x1="897.501" y1="2.62325e-08" x2="897.501" y2="897" stroke="url(#paint15_linear_927_54)"/>
<line x1="953.501" y1="2.62325e-08" x2="953.501" y2="897" stroke="url(#paint16_linear_927_54)"/>
<line x1="1009.5" y1="2.62325e-08" x2="1009.5" y2="897" stroke="url(#paint17_linear_927_54)"/>
<line x1="1065.5" y1="2.62325e-08" x2="1065.5" y2="897" stroke="url(#paint18_linear_927_54)"/>
<line x1="1121.5" y1="2.62325e-08" x2="1121.5" y2="897" stroke="url(#paint19_linear_927_54)"/>
<line x1="1178" y1="56.5" x2="-6.07861e-08" y2="56.4999" stroke="white" stroke-opacity="0.75"/>
<line x1="1178" y1="112.5" x2="-6.07861e-08" y2="112.5" stroke="white" stroke-opacity="0.7"/>
<line x1="1178" y1="168.5" x2="-6.07861e-08" y2="168.5" stroke="white" stroke-opacity="0.65"/>
<line x1="1178" y1="224.5" x2="-6.07861e-08" y2="224.5" stroke="white" stroke-opacity="0.6"/>
<line x1="1178" y1="280.5" x2="-6.07861e-08" y2="280.5" stroke="white" stroke-opacity="0.55"/>
<line x1="1178" y1="336.5" x2="-6.07861e-08" y2="336.5" stroke="white" stroke-opacity="0.5"/>
<line x1="1178" y1="392.5" x2="-6.07861e-08" y2="392.5" stroke="white" stroke-opacity="0.45"/>
<line x1="1178" y1="448.5" x2="-6.07861e-08" y2="448.5" stroke="white" stroke-opacity="0.4"/>
<line x1="1178" y1="504.5" x2="-6.07861e-08" y2="504.5" stroke="white" stroke-opacity="0.35"/>
<line x1="1178" y1="560.5" x2="-6.07861e-08" y2="560.5" stroke="white" stroke-opacity="0.3"/>
<line x1="1178" y1="616.5" x2="-6.07861e-08" y2="616.5" stroke="white" stroke-opacity="0.25"/>
<line x1="1178" y1="672.5" x2="-6.07861e-08" y2="672.5" stroke="white" stroke-opacity="0.2"/>
<line x1="1178" y1="728.5" x2="-6.07861e-08" y2="728.5" stroke="white" stroke-opacity="0.15"/>
<line x1="1178" y1="784.5" x2="-6.07861e-08" y2="784.5" stroke="white" stroke-opacity="0.1"/>
<line x1="1178" y1="840.5" x2="-6.07861e-08" y2="840.5" stroke="white" stroke-opacity="0.05"/>
</g>
<defs>
<linearGradient id="paint0_linear_927_54" x1="56.5" y1="-2.62325e-08" x2="56.5" y2="897" gradientUnits="userSpaceOnUse">
<stop stop-color="white"/>
<stop offset="1" stop-color="white" stop-opacity="0"/>
</linearGradient>
<linearGradient id="paint1_linear_927_54" x1="112.5" y1="-2.62325e-08" x2="112.5" y2="897" gradientUnits="userSpaceOnUse">
<stop stop-color="white"/>
<stop offset="1" stop-color="white" stop-opacity="0"/>
</linearGradient>
<linearGradient id="paint2_linear_927_54" x1="168.5" y1="-2.62325e-08" x2="168.5" y2="897" gradientUnits="userSpaceOnUse">
<stop stop-color="white"/>
<stop offset="1" stop-color="white" stop-opacity="0"/>
</linearGradient>
<linearGradient id="paint3_linear_927_54" x1="224.5" y1="-2.62325e-08" x2="224.5" y2="897" gradientUnits="userSpaceOnUse">
<stop stop-color="white"/>
<stop offset="1" stop-color="white" stop-opacity="0"/>
</linearGradient>
<linearGradient id="paint4_linear_927_54" x1="280.5" y1="-2.62325e-08" x2="280.5" y2="897" gradientUnits="userSpaceOnUse">
<stop stop-color="white"/>
<stop offset="1" stop-color="white" stop-opacity="0"/>
</linearGradient>
<linearGradient id="paint5_linear_927_54" x1="336.5" y1="-2.62325e-08" x2="336.5" y2="897" gradientUnits="userSpaceOnUse">
<stop stop-color="white"/>
<stop offset="1" stop-color="white" stop-opacity="0"/>
</linearGradient>
<linearGradient id="paint6_linear_927_54" x1="392.5" y1="-2.62325e-08" x2="392.5" y2="897" gradientUnits="userSpaceOnUse">
<stop stop-color="white"/>
<stop offset="1" stop-color="white" stop-opacity="0"/>
</linearGradient>
<linearGradient id="paint7_linear_927_54" x1="448.5" y1="-2.62325e-08" x2="448.5" y2="897" gradientUnits="userSpaceOnUse">
<stop stop-color="white"/>
<stop offset="1" stop-color="white" stop-opacity="0"/>
</linearGradient>
<linearGradient id="paint8_linear_927_54" x1="504.5" y1="-2.62325e-08" x2="504.5" y2="897" gradientUnits="userSpaceOnUse">
<stop stop-color="white"/>
<stop offset="1" stop-color="white" stop-opacity="0"/>
</linearGradient>
<linearGradient id="paint9_linear_927_54" x1="560.5" y1="-2.62325e-08" x2="560.5" y2="897" gradientUnits="userSpaceOnUse">
<stop stop-color="white"/>
<stop offset="1" stop-color="white" stop-opacity="0"/>
</linearGradient>
<linearGradient id="paint10_linear_927_54" x1="616.5" y1="-2.62325e-08" x2="616.5" y2="897" gradientUnits="userSpaceOnUse">
<stop stop-color="white"/>
<stop offset="1" stop-color="white" stop-opacity="0"/>
</linearGradient>
<linearGradient id="paint11_linear_927_54" x1="672.5" y1="-2.62325e-08" x2="672.5" y2="897" gradientUnits="userSpaceOnUse">
<stop stop-color="white"/>
<stop offset="1" stop-color="white" stop-opacity="0"/>
</linearGradient>
<linearGradient id="paint12_linear_927_54" x1="728.5" y1="-2.62325e-08" x2="728.5" y2="897" gradientUnits="userSpaceOnUse">
<stop stop-color="white"/>
<stop offset="1" stop-color="white" stop-opacity="0"/>
</linearGradient>
<linearGradient id="paint13_linear_927_54" x1="784.5" y1="-2.62325e-08" x2="784.5" y2="897" gradientUnits="userSpaceOnUse">
<stop stop-color="white"/>
<stop offset="1" stop-color="white" stop-opacity="0"/>
</linearGradient>
<linearGradient id="paint14_linear_927_54" x1="840.5" y1="-2.62325e-08" x2="840.5" y2="897" gradientUnits="userSpaceOnUse">
<stop stop-color="white"/>
<stop offset="1" stop-color="white" stop-opacity="0"/>
</linearGradient>
<linearGradient id="paint15_linear_927_54" x1="896.501" y1="-2.62325e-08" x2="896.501" y2="897" gradientUnits="userSpaceOnUse">
<stop stop-color="white"/>
<stop offset="1" stop-color="white" stop-opacity="0"/>
</linearGradient>
<linearGradient id="paint16_linear_927_54" x1="952.501" y1="-2.62325e-08" x2="952.501" y2="897" gradientUnits="userSpaceOnUse">
<stop stop-color="white"/>
<stop offset="1" stop-color="white" stop-opacity="0"/>
</linearGradient>
<linearGradient id="paint17_linear_927_54" x1="1008.5" y1="-2.62325e-08" x2="1008.5" y2="897" gradientUnits="userSpaceOnUse">
<stop stop-color="white"/>
<stop offset="1" stop-color="white" stop-opacity="0"/>
</linearGradient>
<linearGradient id="paint18_linear_927_54" x1="1064.5" y1="-2.62325e-08" x2="1064.5" y2="897" gradientUnits="userSpaceOnUse">
<stop stop-color="white"/>
<stop offset="1" stop-color="white" stop-opacity="0"/>
</linearGradient>
<linearGradient id="paint19_linear_927_54" x1="1120.5" y1="-2.62325e-08" x2="1120.5" y2="897" gradientUnits="userSpaceOnUse">
<stop stop-color="white"/>
<stop offset="1" stop-color="white" stop-opacity="0"/>
</linearGradient>
</defs>
</svg>
